<svg width="1524" height="390" viewBox="0 0 1524 390" fill="none" xmlns="http://www.w3.org/2000/svg">
<path d="M444.467 1.69447C355.647 2.3295 282.994 101.046 282.994 187.15C282.994 277.76 336.252 388.29 444.467 387.931C552.682 387.573 608.849 268.578 608.849 187.15C608.849 97.2072 533.287 1.05946 444.467 1.69447ZM444.467 5.07176C518.806 5.07176 538.862 87.1736 538.862 187.15C538.862 319.067 514.669 384.149 444.467 384.025C374.265 383.901 351.426 330.635 351.426 187.15C351.426 97.2688 370.128 5.07176 444.467 5.07176Z" fill="black"/>
<path d="M638.178 189.585C637.78 91.6121 716.192 4.82703 782.57 0.521219C806.546 -1.17741 837.366 9.80219 855.358 17.6236C868.424 23.3032 895.095 15.0823 899.831 0H902.414V133.457H899.831C899.831 127.768 875.116 3.87656 782.57 3.87656C714.212 3.87656 707.608 124.074 707.608 189.585C707.608 255.095 709.6 384.784 789.37 384.784C828.013 384.784 856.617 367.878 864.032 333.675V229.677H831.596V225.247H957.323V229.677H926.313V381.721H923.788C923.788 381.721 918.747 359.783 893.165 359.857C860.468 359.95 829.633 388.356 792.045 388.011C692.639 387.096 638.576 287.558 638.178 189.585Z" fill="black"/>
<path d="M39.1475 14.8402H0V10.4397H137.136V14.8402H102.732L200.719 280.942C231.36 186.608 255.097 116.877 287.041 14.8402H253.011V10.4397H325.419V14.8402H292.445L173.352 386.104L39.1475 14.8402Z" fill="black"/>
<path d="M976.522 295.209L975.903 14.4128H938.64V10.2067H1075.92V14.4128H1038.68L1039.51 322.29C1047.75 357.545 1062.41 384.295 1112.49 384.694C1162.56 385.092 1196.61 355.07 1209.26 314.042V14.4128H1166.63L1166.63 10.3306H1515.53L1516.25 145.124H1512.9C1506.43 58.0928 1472.85 25.2014 1414.12 15.6058C1393.91 12.3039 1372.71 14.7516 1345.9 14.5433V186.575C1369.24 188.378 1394.1 186.903 1410.86 172.513C1426.09 159.428 1430.4 129.195 1431.52 116.913H1434.47V266.7H1431.28C1430.35 266.7 1429.13 229.111 1410.86 211.278C1392.47 193.328 1369.05 188.915 1345.9 193.191V376.959C1378.59 376.959 1404.65 379.728 1427.28 373.524C1496.07 354.664 1520.29 296.629 1520.1 238.423H1523.93V381.309H1250.27V376.959H1281.21V14.4128H1214.35V314.042C1206.78 342.711 1179.08 390.14 1108.11 389.816C1042.12 389.515 976.665 359.764 976.522 295.209Z" fill="black"/>
</svg>
